<svg width="34" height="34" viewBox="0 0 34 34" fill="none" xmlns="http://www.w3.org/2000/svg">
    <g clip-path="url(#clip0_346_5171)">
        <path d="M11.475 26.9167C9.49168 26.9167 7.93335 28.475 7.93335 30.4583C7.93335 32.4417 9.49168 34 11.475 34C13.4583 34 15.0167 32.4417 15.0167 30.4583C15.0167 28.475 13.4583 26.9167 11.475 26.9167ZM11.475 32.5833C10.3417 32.5833 9.35002 31.5917 9.35002 30.4583C9.35002 29.325 10.3417 28.3333 11.475 28.3333C12.6083 28.3333 13.6 29.325 13.6 30.4583C13.6 31.5917 12.6083 32.5833 11.475 32.5833Z" fill="black"/>
        <path d="M25.6418 26.9167C23.6584 26.9167 22.1001 28.475 22.1001 30.4583C22.1001 32.4417 23.6584 34 25.6418 34C27.6251 34 29.1834 32.4417 29.1834 30.4583C29.1834 28.475 27.6251 26.9167 25.6418 26.9167ZM25.6418 32.5833C24.5084 32.5833 23.5168 31.5917 23.5168 30.4583C23.5168 29.325 24.5084 28.3333 25.6418 28.3333C26.7751 28.3333 27.7668 29.325 27.7668 30.4583C27.7668 31.5917 26.7751 32.5833 25.6418 32.5833Z" fill="black"/>
        <path d="M33.8582 5.95003H28.0499L26.2083 0.425C26.0666 -0.141667 25.0749 -0.141667 24.7916 0.425L22.9499 5.95003H17.1416C16.8583 5.95003 16.5749 6.09168 16.4333 6.37502C16.2916 6.65835 16.4333 6.94169 16.7166 7.22503L21.3916 10.625L19.6916 16.0083C19.5499 16.2917 19.6916 16.575 19.9749 16.8583C20.2583 17 20.5416 17 20.8249 16.8583L25.3582 13.6L29.8916 16.8583C30.0333 17 30.1749 17 30.3166 17C30.4582 17 30.5999 17 30.7416 16.8583C31.0249 16.7167 31.1666 16.4333 31.0249 16.0083L29.3249 10.625L33.9999 7.22503C34.5666 7.08336 34.5666 6.80002 34.5666 6.37502C34.4249 6.09168 34.1416 5.95003 33.8582 5.95003ZM28.3333 9.77501C28.0499 9.91668 28.0499 10.2 28.0499 10.625L29.1833 14.45L25.9249 12.0417C25.7833 11.9 25.6416 11.9 25.4999 11.9C25.3583 11.9 25.2166 11.9 25.0749 12.0417L21.8166 14.45L22.9499 10.625C23.0916 10.3417 22.9499 10.0583 22.6666 9.77501L19.4082 7.3667H23.5166C23.7999 7.3667 24.0833 7.22501 24.2249 6.94168L25.4999 2.97503L26.7749 6.94168C26.9166 7.22501 27.1999 7.3667 27.4832 7.3667H31.5916L28.3333 9.77501Z" fill="black"/>
        <path d="M29.75 18.4167L8.64168 21.25L6.09168 8.50001H15.725C16.15 8.50001 16.4334 8.21668 16.4334 7.79168C16.4334 7.36668 16.15 7.08334 15.725 7.08334H5.80835L5.10002 3.4C5.10002 3.11667 4.67502 2.83334 4.39168 2.83334H0.141683C-0.283317 2.83334 -0.56665 3.11668 -0.56665 3.54168C-0.56665 3.96668 -0.283317 4.25001 0.141683 4.25001H3.825L7.22502 21.5334C7.65002 23.8 9.77501 25.5 12.0417 25.5H28.3333C28.7583 25.5 29.0417 25.2167 29.0417 24.7917C29.0417 24.3667 28.7583 24.0833 28.3333 24.0833H12.0417C10.9083 24.0833 9.77501 23.5167 9.20834 22.525L29.8917 19.6917C30.3167 19.6917 30.6 19.2667 30.4583 18.8417C30.6 18.5583 30.175 18.275 29.75 18.4167Z" fill="black"/>
    </g>
    <defs>
        <clipPath id="clip0_346_5171">
            <rect width="34" height="34" fill="white"/>
        </clipPath>
    </defs>
</svg>
